<svg xmlns="http://www.w3.org/2000/svg" viewBox="0 0 64 64" class="d-none"><g data-name="Outline" fill="currentColor" class="color000 svgShape"><path d="M59 2H33a3 3 0 0 0-3 3v34h-4.518l1.975-1.943a3.019 3.019 0 1 0-4.229-4.309L14.859 41H10.95v-1.88a1 1 0 0 0-1-1H3a1 1 0 0 0-1 1V57a1 1 0 0 0 1 1h6.95a1 1 0 0 0 1-1v-2h3.841l2.8 1.836a1 1 0 0 0 .549.164h11.21a3 3 0 0 0 .65-.078v2.008a3 3 0 0 0 3 3h26a3 3 0 0 0 3-3V5a3 3 0 0 0-3-3Zm-6.452 2-.535 2.776a.91.91 0 0 1-.928.588h-10.17a.909.909 0 0 1-.928-.587L39.452 4ZM8.95 56H4V40.12h4.95Zm9.488-1-2.8-1.836A1 1 0 0 0 15.09 53h-4.14V43h4.32a1 1 0 0 0 .7-.288l8.661-8.541a1.02 1.02 0 1 1 1.416 1.466l-3.71 3.65A1 1 0 0 0 23.04 41h14.43a1.026 1.026 0 0 1 1.03 1 1.017 1.017 0 0 1-1.03 1H26a1 1 0 0 0 0 2h6.39a1 1 0 1 1 0 2H26a1 1 0 0 0 0 2h5.38a1 1 0 1 1 0 2H26a1 1 0 0 0 0 2h3.35a1 1 0 1 1 0 2Zm21.89-14H53a1 1 0 0 1 1 1v3a1 1 0 0 1-1 1H39a1 1 0 0 1-1-1v-.046A3.039 3.039 0 0 0 40.328 41ZM60 58.93a1 1 0 0 1-1 1H33a1 1 0 0 1-1-1v-3.479a3.011 3.011 0 0 0 .167-2.554A3.009 3.009 0 0 0 34.41 50a2.952 2.952 0 0 0-.39-1.472A2.993 2.993 0 0 0 35.42 46a2.96 2.96 0 0 0-.173-1H36a3 3 0 0 0 3 3h14a3 3 0 0 0 3-3v-3a3 3 0 0 0-3-3H32V5a1 1 0 0 1 1-1h4.416l.608 3.156a2.867 2.867 0 0 0 2.891 2.208h10.17a2.867 2.867 0 0 0 2.891-2.208L54.584 4H59a1 1 0 0 1 1 1Z" fill="currentColor" class="color000 svgShape"/><path d="M46 13a11 11 0 1 0 11 11 11.013 11.013 0 0 0-11-11zm0 20a9 9 0 1 1 9-9 9.01 9.01 0 0 1-9 9zm2 19h-4a1 1 0 0 0 0 2h4a1 1 0 0 0 0-2z" fill="currentColor" class="color000 svgShape"/><circle cx="40" cy="53" r="1" fill="currentColor" class="color000 svgShape"/><path d="M46.254 22.672H46.1c-.67 0-1.237-.432-1.237-.943s.567-.942 1.237-.942a1.135 1.135 0 0 1 1.235.942 1 1 0 1 0 2 0 3 3 0 0 0-2.4-2.829V18a1 1 0 0 0-2 0v.991a2.965 2.965 0 0 0-2.074 2.738 3.1 3.1 0 0 0 3.239 2.943h.151A1.6 1.6 0 0 1 48 26.059a1.793 1.793 0 0 1-3.493 0 1 1 0 0 0-2 0 3.418 3.418 0 0 0 2.433 3.16V30a1 1 0 0 0 2 0v-.618A3.5 3.5 0 0 0 50 26.059a3.584 3.584 0 0 0-3.746-3.387Z" fill="currentColor" class="color000 svgShape"/></g></svg>