<svg xmlns="http://www.w3.org/2000/svg" enable-background="new 0 0 64 64" viewBox="0 0 64 64" class="d-none"><circle cx="33" cy="46" r="1" fill="currentColor" class="color000 svgShape"/><circle cx="5" cy="18" r="1" fill="currentColor" class="color000 svgShape"/><path d="M15 6h8c.552 0 1-.448 1-1s-.448-1-1-1h-8c-.552 0-1 .448-1 1S14.448 6 15 6zM22 54h-6c-.552 0-1 .448-1 1s.448 1 1 1h6c.552 0 1-.448 1-1S22.552 54 22 54z" fill="currentColor" class="color000 svgShape"/><path d="M62,14H38V5c0-2.757-2.243-5-5-5H5C2.243,0,0,2.243,0,5v54c0,2.757,2.243,5,5,5h28c2.757,0,5-2.243,5-5v-9h24&#10;&#9;&#9;c1.103,0,2-0.897,2-2V16C64,14.897,63.103,14,62,14z M58,39c-1.324,0-2.579,0.518-3.542,1.468C53.518,41.421,53,42.676,53,44H38&#10;&#9;&#9;v-5.306c1.906-1.711,3-4.117,3-6.694s-1.094-4.983-3-6.694V20h15c0,1.324,0.518,2.579,1.468,3.542C55.421,24.482,56.676,25,58,25&#10;&#9;&#9;V39z M38,28.399c0.645,1.074,1,2.31,1,3.601s-0.355,2.527-1,3.601V28.399z M5,2h28c1.654,0,3,1.346,3,3v53H2V5C2,3.346,3.346,2,5,2&#10;&#9;&#9;z M33,62H5c-1.302,0-2.402-0.839-2.816-2h33.631C35.402,61.161,34.302,62,33,62z M62,48H38v-2h15c1.103,0,2-0.897,2-2&#10;&#9;&#9;c0-0.795,0.313-1.551,0.872-2.118C56.449,41.313,57.205,41,58,41c1.103,0,2-0.897,2-2V25c0-1.103-0.897-2-2-2&#10;&#9;&#9;c-0.795,0-1.551-0.313-2.118-0.872C55.313,21.551,55,20.795,55,20c0-1.103-0.897-2-2-2H38v-2h24V48z" fill="currentColor" class="color000 svgShape"/><path d="M48 29c-1.654 0-3 1.346-3 3s1.346 3 3 3 3-1.346 3-3S49.654 29 48 29zM48 33c-.551 0-1-.449-1-1s.449-1 1-1 1 .449 1 1S48.551 33 48 33zM19 47h10c.552 0 1-.448 1-1s-.448-1-1-1h-2.544c.97-.558 1.882-1.225 2.721-2H33c.552 0 1-.448 1-1s-.448-1-1-1h-2.021C32.93 38.411 34 35.292 34 32c0-8.271-6.729-15-15-15H9c-.552 0-1 .448-1 1s.448 1 1 1h2.545c-1.371.787-2.616 1.796-3.696 3H5c-.552 0-1 .448-1 1s.448 1 1 1h1.331C4.826 26.385 4 29.158 4 32 4 40.271 10.729 47 19 47zM19 19c7.168 0 13 5.832 13 13 0 3.512-1.385 6.81-3.901 9.286C25.646 43.681 22.415 45 19 45c-7.168 0-13-5.832-13-13 0-3.051 1.082-6.019 3.045-8.357C11.524 20.692 15.152 19 19 19z" fill="currentColor" class="color000 svgShape"/><path d="M19,43c6.065,0,11-4.935,11-11c0-6.043-4.915-10.978-10.957-11H19c-6.065,0-11,4.935-11,11C8,38.043,12.915,42.978,19,43z&#10;&#9;&#9; M19,23h0.039C23.98,23.02,28,27.056,28,32c0,4.946-4.012,8.971-8.988,8.998C19.558,40.991,20,40.548,20,40v-1h1&#10;&#9;&#9;c1.654,0,3-1.346,3-3v-2c0-1.654-1.346-3-3-3h-4c-0.551,0-1-0.449-1-1v-2c0-0.551,0.449-1,1-1h4c0.551,0,1,0.449,1,1&#10;&#9;&#9;c0,0.552,0.448,1,1,1s1-0.448,1-1c0-1.654-1.346-3-3-3h-1v-1C20,23.448,19.552,23,19,23s-1,0.448-1,1v1h-1c-1.654,0-3,1.346-3,3v2&#10;&#9;&#9;c0,1.654,1.346,3,3,3h4c0.551,0,1,0.449,1,1v2c0,0.551-0.449,1-1,1h-4c-0.551,0-1-0.449-1-1c0-0.552-0.448-1-1-1s-1,0.448-1,1&#10;&#9;&#9;c0,1.654,1.346,3,3,3h1v1c0,0.55,0.444,0.994,0.993,0.999c-0.01,0-0.019,0.001-0.029,0.001C14.021,40.982,10,36.945,10,32&#10;&#9;&#9;C10,27.038,14.038,23,19,23z" fill="currentColor" class="color000 svgShape"/></svg>