<svg xmlns="http://www.w3.org/2000/svg" data-name="Layer 1" viewBox="0 0 29 29" class="d-none"><path fill="none" d="M25.472 7.992c-.694-.035-.883.7-1.873.923-1.135.255-1.774-.51-2.308-.108a1.496 1.496 0 0 0-.163 1.792c.622 1.02 2.527.79 3.42.543a4.96 4.96 0 0 0 2.499-1.684c-.618-1.16-1.167-1.445-1.575-1.466Z"/><path d="M20 2H9a1 1 0 0 0-1 1v23a1 1 0 0 0 1 1h11a1 1 0 0 0 1-1V3a1 1 0 0 0-1-1Zm-5.5 24.5a1 1 0 1 1 1-1 1 1 0 0 1-1 1Zm5.5-2.8a.3.3 0 0 1-.3.3H9.3a.3.3 0 0 1-.3-.3V5.3a.3.3 0 0 1 .3-.3h10.4a.3.3 0 0 1 .3.3Zm-1.831-8.403a.32.32 0 0 0-.32.32v1.913a.32.32 0 0 1-.319.32h-1.914a.32.32 0 0 0 0 .638h1.914a.959.959 0 0 0 .958-.958v-1.914a.32.32 0 0 0-.319-.32Zm-4.785 2.553H11.47a.32.32 0 0 1-.32-.32v-1.914a.32.32 0 0 0-.638 0v1.914a.959.959 0 0 0 .958.958h1.914a.32.32 0 0 0 0-.638Zm4.146-7.338h-1.914a.32.32 0 0 0 0 .638h1.914a.32.32 0 0 1 .32.32v1.914a.32.32 0 0 0 .638 0V11.47a.959.959 0 0 0-.958-.958Zm-6.699 3.191a.32.32 0 0 0 .32-.32V11.47a.32.32 0 0 1 .319-.32h1.914a.32.32 0 0 0 0-.638H11.47a.959.959 0 0 0-.958.958v1.914a.32.32 0 0 0 .319.32Zm2.166-.586h-.562a.497.497 0 0 0-.497.497v2.421a.497.497 0 0 0 .497.498h4.13a.497.497 0 0 0 .497-.498v-2.421a.497.497 0 0 0-.497-.497h-.562l-.46-.46a.648.648 0 0 0-.457-.19h-1.172a.648.648 0 0 0-.458.19Zm1.503.684a1.024 1.024 0 1 1-1.023 1.023 1.024 1.024 0 0 1 1.023-1.023Zm0 1.798a.774.774 0 1 0-.773-.775.775.775 0 0 0 .773.775Z" fill="currentColor" class="color000 svgShape"/></svg>