<svg xmlns="http://www.w3.org/2000/svg" viewBox="0 0 64 64" class="d-none"><g data-name="QR Code-Smartphone-Scan-Code-QR Scan" fill="currentColor" class="color000 svgShape"><path fill="currentColor" d="M38 20h4v4h-4zM35.41 53.59A1.955 1.955 0 0 1 36 55a2.006 2.006 0 0 1-2 2h-4a2.015 2.015 0 0 1-2-2 2.006 2.006 0 0 1 2-2h4a1.955 1.955 0 0 1 1.41.59ZM22 36h4v4h-4zM22 20h4v4h-4z" class="colorbddbff svgShape"/><path fill="currentColor" d="M46 2H18a6.006 6.006 0 0 0-6 6v48a6.006 6.006 0 0 0 6 6h28a6.006 6.006 0 0 0 6-6V8a6.006 6.006 0 0 0-6-6Zm4 54a4 4 0 0 1-4 4H18a4 4 0 0 1-4-4V8a4 4 0 0 1 4-4h28a4 4 0 0 1 4 4Z" class="color3d9ae2 svgShape"/><path fill="currentColor" d="M34 52h-4a3 3 0 0 0 0 6h4a3 3 0 0 0 0-6Zm0 4h-4a1 1 0 0 1 0-2h4a1 1 0 0 1 0 2ZM25 6h2v2h-2zM29 6h6v2h-6zM22 25h4a1 1 0 0 0 1-1v-4a1 1 0 0 0-1-1h-4a1 1 0 0 0-1 1v4a1 1 0 0 0 1 1zm1-4h2v2h-2zm19-2h-4a1 1 0 0 0-1 1v4a1 1 0 0 0 1 1h4a1 1 0 0 0 1-1v-4a1 1 0 0 0-1-1zm-1 4h-2v-2h2zM27 36a1 1 0 0 0-1-1h-4a1 1 0 0 0-1 1v4a1 1 0 0 0 1 1h4a1 1 0 0 0 1-1zm-2 3h-2v-2h2zM23 31h2v2h2v-2h3v-2h-2v-2h-2v2h-3v-2h-2v6h2v-2zM41 39h-2v2h3a1 1 0 0 0 1-1v-3h-2ZM34 37h1v-2h-1v-3h-2v3h-3v2h3v2h-3v2h8v-2h-3v-2zM41 27h2v8h-2zM32 28h3v2h-3zM37 35h2v2h-2zM31 26h2v-1h2v-2h-2v-2h2v-2h-6v2h2v5zM37 28h2v5h-2z" class="color3d9ae2 svgShape"/></g></svg>