<svg xmlns="http://www.w3.org/2000/svg" viewBox="0 0 50 50" class="d-none"><defs><clipPath id="a"><path fill="none" d="M27.28 20.74a2.5 2.5 0 1 1 2.5-2.49 2.48 2.48 0 0 1-2.5 2.49m0-5.84a3.35 3.35 0 1 0 3.35 3.35 3.35 3.35 0 0 0-3.35-3.35"/></clipPath></defs><path fill="currentColor" d="M35.41.2H10.8a1.74 1.74 0 0 0-1.74 1.74v44.52a1.74 1.74 0 0 0 1.74 1.74h24.61a1.74 1.74 0 0 0 1.74-1.74V1.94A1.74 1.74 0 0 0 35.41.2" class="color62667c svgShape"/><path fill="#2F6B3E" d="M9.98 41.41V4.84h26.24v36.57H9.98" class="color69b0ee svgShape"/><path fill="#2F6B3E" d="M23.76 2.08h-3.19a.49.49 0 0 0-.48.48.48.48 0 0 0 .48.48h3.19a.47.47 0 0 0 .48-.48.48.48 0 0 0-.48-.48zm1.87 0h-.11a.48.48 0 0 0-.48.48.47.47 0 0 0 .48.48h.11a.47.47 0 0 0 .48-.48.48.48 0 0 0-.48-.48z" class="colordbd8dd svgShape"/><circle cx="15.25" cy="2.56" r=".97" fill="currentColor" class="colorbbbbcd svgShape"/><circle cx="15.25" cy="2.56" r=".55" fill="currentColor" class="color828a9e svgShape"/><path fill="currentColor" d="M23.1 43.38a1.45 1.45 0 1 0 1.45 1.45 1.45 1.45 0 0 0-1.45-1.45Z" class="colordbd8dd svgShape"/><g clip-path="url(#a)" fill="currentColor" class="color000 svgShape"><path fill="#2F6B3E" d="M23.93 14.9h6.69v6.69h-6.69z" class="color91c3ee svgShape"/></g><path fill="currentColor" d="M27.28 19.92A1.67 1.67 0 1 1 29 18.25a1.67 1.67 0 0 1-1.67 1.67m0-4.17a2.5 2.5 0 1 0 2.5 2.5 2.49 2.49 0 0 0-2.5-2.5" class="colorb6cee5 svgShape"/><path fill="#2F6B3E" d="M27.28 16.58A1.67 1.67 0 1 0 29 18.25a1.67 1.67 0 0 0-1.67-1.67" class="colorccdbe9 svgShape"/><path fill="#2F6B3E" d="M25.8 32.42a2.5 2.5 0 1 1 2.5-2.49 2.49 2.49 0 0 1-2.5 2.49m0-5.84a3.35 3.35 0 1 0 3.35 3.35 3.35 3.35 0 0 0-3.35-3.35" class="color91c3ee svgShape"/><path fill="currentColor" d="M25.8 31.6a1.68 1.68 0 1 1 1.68-1.67 1.67 1.67 0 0 1-1.68 1.67m0-4.17a2.5 2.5 0 1 0 2.5 2.5 2.5 2.5 0 0 0-2.5-2.5" class="colorb6cee5 svgShape"/><path fill="#2F6B3E" d="M25.8 28.25a1.68 1.68 0 1 0 1.68 1.68 1.68 1.68 0 0 0-1.68-1.68" class="colorccdbe9 svgShape"/><path fill="currentColor" d="M36 24.11a1.25 1.25 0 0 1-.88 1.33 1.22 1.22 0 0 1-1.54-.8l-1.16-3.74a1.24 1.24 0 0 1 .83-1.54 1.25 1.25 0 0 1 1.09.16 1.23 1.23 0 0 1 .46.63l.35 1.15v.06l.85 2.57v.14zm-.42 7.15-1.24 3-6.92-2.66-2.18-.82-.17-.11a.74.74 0 0 1-.07-1.13 2.9 2.9 0 0 1 2.94-.78z" class="colorfed19a svgShape"/><path fill="currentColor" d="M28.58 17.72a1.26 1.26 0 0 0-2 1.5L32 30.14l2.5-4.61zm10.06 7.46a1.24 1.24 0 0 1-2.34 0l-.3-1v-.08l-.82-2.71v-.09a1.09 1.09 0 0 1 0-.62 1.22 1.22 0 0 1 .83-.86 1.19 1.19 0 0 1 1.2.27 1.16 1.16 0 0 1 .34.53l.57 1.85.58 1.92a1.15 1.15 0 0 1-.06.79z" class="colorfed19a svgShape"/><path fill="currentColor" d="M40.8 27a1.22 1.22 0 0 1-1.55-.79l-.33-1.12-.24-.74-.58-1.92a1.16 1.16 0 0 1 0-.8 1.25 1.25 0 0 1 .79-.75 1.22 1.22 0 0 1 1.54.79l1.16 3.79A1.25 1.25 0 0 1 40.8 27Z" class="colorfed19a svgShape"/><path fill="currentColor" d="m32 30.14-.13 3.22 4.56 3.12.79 1.19 6.58-4.46-1-2.15-1.25-5.57-1.34-.9-4.92-1.35-3.99 2.63a5.64 5.64 0 0 0 .7 4.27Z" class="colorfed19a svgShape"/><path fill="currentColor" d="M27.9 31c0 .16-.14.38-.36.58h-.13l-2.18-.82-.05-.11a.54.54 0 0 1 .74-.49c.95.25 1.93.41 1.98.84zm.19-13a.7.7 0 1 0-1.12.83l.8 1.09 1.13-.83z" class="coloreeefee svgShape"/><path fill="currentColor" d="M36.14 24.11H36l-.31.08-1.34-4.71a1.23 1.23 0 0 1 .46.63l.35 1.15a1.09 1.09 0 0 1 0-.62zm2.96.96-.18.05-.27.08-1.45-5.1a1.16 1.16 0 0 1 .34.53l.57 1.85a1.16 1.16 0 0 1 0-.8z" class="colorf4bb87 svgShape"/><path fill="currentColor" d="M46.37 35.83 44 32.11a.55.55 0 0 0-.8-.11l-6.8 4.48a.54.54 0 0 0-.16.76l2.39 3.71a.55.55 0 0 0 .77.17l6.8-4.48a.55.55 0 0 0 .17-.81Z" class="color16a897 svgShape"/></svg>