<svg xmlns="http://www.w3.org/2000/svg" enable-background="new 0 0 512 512" viewBox="0 0 512 512" class="d-none"><path d="M377.187,8.258H134.813c-4.566,0-8.769,1.627-12.023,4.348c-2.465,2.053-4.396,4.736-5.55,7.797&#10;&#9;&#9;c-0.789,2.064-1.214,4.299-1.214,6.643v457.91c0,10.371,8.416,18.787,18.787,18.787h242.374c10.372,0,18.788-8.416,18.788-18.787&#10;&#9;&#9;V27.045C395.975,16.674,387.559,8.258,377.187,8.258z M279.979,24.247h16c2.209,0,4,1.791,4,4s-1.791,4-4,4h-16&#10;&#9;&#9;c-2.209,0-4-1.791-4-4S277.77,24.247,279.979,24.247z M215.979,24.247h40c2.209,0,4,1.791,4,4s-1.791,4-4,4h-40&#10;&#9;&#9;c-2.209,0-4-1.791-4-4S213.77,24.247,215.979,24.247z M379.978,441.777c0,3.574-2.896,6.471-6.47,6.471h-235.06&#10;&#9;&#9;c-3.573,0-6.471-2.896-6.471-6.471V62.718c0-3.573,2.897-6.471,6.471-6.471h235.06c3.573,0,6.47,2.897,6.47,6.471V441.777z" fill="currentColor" class="color000 svgShape"/><path d="M276.685 118.254c-2.932-2.073-6.987-1.377-9.06 1.554l-17.217 24.345-6.385-5.232c-2.775-2.275-6.872-1.868-9.148.908-2.273 2.777-1.867 6.873.91 9.147l11.783 9.654c1.168.958 2.626 1.473 4.119 1.473.289 0 .581-.02.871-.059 1.788-.242 3.395-1.216 4.436-2.688l21.244-30.042C280.312 124.383 279.615 120.326 276.685 118.254zM274.393 190.14c.492 0 .992-.091 1.478-.284 6.757-2.688 12.8-6.649 17.962-11.777 1.567-1.557 1.576-4.09.02-5.657-1.559-1.567-4.092-1.576-5.656-.019-4.393 4.362-9.534 7.733-15.282 10.02-2.053.816-3.056 3.143-2.239 5.195C271.299 189.186 272.803 190.14 274.393 190.14z" fill="currentColor" class="color000 svgShape"/><path d="M255.932 193.657c2.209 0 4-1.791 4-4s-1.791-4-4-4c-25.101 0-45.521-20.188-45.521-45 0-24.813 20.421-45 45.521-45 25.1 0 45.521 20.187 45.521 45 0 6.173-1.24 12.151-3.686 17.769-.882 2.025.046 4.382 2.071 5.264 2.024.883 4.382-.045 5.265-2.07 2.886-6.631 4.35-13.684 4.35-20.962 0-29.225-24.009-53-53.521-53s-53.521 23.775-53.521 53C202.41 169.881 226.42 193.657 255.932 193.657zM348.264 225.35H163.845c-4.421 0-8.005 3.584-8.005 8.005s3.584 8.005 8.005 8.005h16.166v175.071c.585-.956 1.881-1.378 2.965-.741l9.28 5.43c.68.4 1.52.4 2.199 0l11.45-6.711c.681-.389 1.521-.389 2.2 0l11.461 6.711c.68.4 1.52.4 2.199 0l11.45-6.711c.68-.389 1.521-.389 2.2 0l11.449 6.711c.681.4 1.521.4 2.201 0l11.459-6.711c.68-.389 1.521-.389 2.2 0l11.46 6.711c.68.4 1.52.4 2.2 0l11.45-6.711c.68-.389 1.52-.389 2.2 0l11.47 6.721c.189.109.394.18.602.229.219-.049.434-.121.633-.238l11.45-6.711c.68-.389 1.521-.389 2.2 0l11.46 6.711c.68.4 1.52.4 2.2 0l2.039-1.195V241.359h16.174c4.42 0 8.004-3.584 8.004-8.005S352.684 225.35 348.264 225.35zM303.03 261.455c0 2.209-1.79 4-4 4s-4-1.791-4-4c0-2.211 1.79-4 4-4S303.03 259.244 303.03 261.455zM285.84 261.455c0 2.209-1.789 4-4 4-2.209 0-4-1.791-4-4 0-2.211 1.791-4 4-4C284.051 257.455 285.84 259.244 285.84 261.455zM268.65 261.455c0 2.209-1.79 4-4 4-2.211 0-4-1.791-4-4 0-2.211 1.789-4 4-4C266.86 257.455 268.65 259.244 268.65 261.455zM251.461 261.455c0 2.209-1.79 4-4 4s-4-1.791-4-4c0-2.211 1.79-4 4-4S251.461 259.244 251.461 261.455zM217.08 261.455c0 2.209-1.789 4-4 4-2.21 0-4-1.791-4-4 0-2.211 1.79-4 4-4C215.291 257.455 217.08 259.244 217.08 261.455zM193.061 264.285c-.19-.19-.35-.391-.5-.61-.14-.22-.27-.45-.371-.69-.1-.24-.169-.49-.219-.75-.061-.26-.08-.52-.08-.779s.02-.521.08-.78c.05-.261.119-.511.219-.75.102-.24.231-.47.371-.69.15-.22.31-.42.5-.609.75-.74 1.779-1.17 2.83-1.17 1.049 0 2.08.43 2.83 1.17.74.75 1.17 1.779 1.17 2.83 0 1.049-.43 2.08-1.17 2.83-.75.739-1.781 1.17-2.83 1.17C194.84 265.455 193.801 265.024 193.061 264.285zM214.328 337.475v7.911h-7.59v-7.905c-7.142-1.102-11.273-5.448-11.756-11.523H204c.687 3.205 3.104 5.174 6.741 5.174 4.505 0 5.851-2.168 5.851-4.566 0-3.006-1.595-4.461-7.271-6.121-10.435-3.07-13.494-6.948-13.494-12.791 0-6.346 4.588-10.256 10.5-11.37v-6.942h7.538v6.898c7.564 1.183 10.407 5.846 10.845 10.841h-9.021c-.413-1.712-1.152-4.501-5.817-4.501-3.787 0-4.937 2.248-4.937 4.168 0 2.656 1.416 3.852 8.021 5.768 9.16 2.618 12.699 6.365 12.699 12.965C225.653 332.565 221.098 336.447 214.328 337.475zM230.271 265.455c-2.21 0-4-1.791-4-4 0-2.211 1.79-4 4-4s4 1.789 4 4C234.271 263.664 232.48 265.455 230.271 265.455zM315.314 369.672h-68.571c-2.209 0-4-1.791-4-4s1.791-4 4-4h68.571c2.209 0 4 1.791 4 4S317.523 369.672 315.314 369.672zM242.743 341.719c0-2.209 1.791-4 4-4h36.276c2.209 0 4 1.791 4 4s-1.791 4-4 4h-36.276C244.534 345.719 242.743 343.928 242.743 341.719zM315.314 345.719h-15.378c-2.209 0-4-1.791-4-4s1.791-4 4-4h15.378c2.209 0 4 1.791 4 4S317.523 345.719 315.314 345.719zM315.314 321.205h-68.571c-2.209 0-4-1.791-4-4s1.791-4 4-4h68.571c2.209 0 4 1.791 4 4S317.523 321.205 315.314 321.205zM315.314 297.252h-68.571c-2.209 0-4-1.791-4-4s1.791-4 4-4h68.571c2.209 0 4 1.791 4 4S317.523 297.252 315.314 297.252zM320.141 262.234c-.051.26-.13.51-.23.75-.1.24-.221.471-.369.69-.141.22-.311.42-.49.61-.75.739-1.78 1.17-2.83 1.17-.26 0-.521-.03-.781-.08-.259-.051-.509-.131-.75-.23-.239-.1-.469-.22-.688-.359-.221-.15-.431-.32-.61-.5-.74-.74-1.17-1.781-1.17-2.83 0-.26.02-.521.08-.78.05-.261.12-.511.22-.75.1-.24.23-.47.37-.69.15-.22.32-.42.5-.609.18-.18.39-.351.61-.49.22-.15.449-.27.688-.37.241-.101.491-.181.75-.229 1.301-.261 2.681.16 3.611 1.09.74.75 1.17 1.779 1.17 2.83C320.221 261.715 320.189 261.975 320.141 262.234z" fill="currentColor" class="color000 svgShape"/></svg>