<svg xmlns="http://www.w3.org/2000/svg" fill-rule="evenodd" stroke-linejoin="round" stroke-miterlimit="1.414" clip-rule="evenodd" viewBox="0 0 65 64" class="d-none"><rect width="64" height="64" x=".749" fill="none"/><path fill="#34a853" fill-rule="nonzero" d="M23.735,12.005l0,-2.996c0.01,-1.551 1.344,-2.959 2.959,-2.99c4.023,-0.025 8.046,-0.025 12.069,0c1.553,0.03 2.949,1.364 2.959,2.99l0,2.996l18.987,0c0.128,0.025 0.255,0.05 0.382,0.076l0.325,0.216l0.216,0.323l0.076,0.382c0,9.997 0.092,19.994 0,29.991c-0.023,1.506 -0.789,2.927 -1.964,3.852c-0.005,2.042 -0.015,4.084 -0.035,6.126c-0.04,2.558 -2.239,4.881 -4.931,4.924c-14.699,0.14 -29.4,0.14 -44.098,0c-2.571,-0.041 -4.924,-2.265 -4.932,-4.986l0,-6.045c-1.186,-0.913 -1.994,-2.336 -1.999,-3.932l0,-29.93c0.076,-0.379 0.078,-0.384 0.293,-0.705l0.324,-0.216l0.382,-0.076l18.987,0Zm-16.02,35.796c0.006,1.715 0.015,3.43 0.032,5.145c0.024,1.544 1.36,2.929 2.958,2.954c14.682,0.14 29.366,0.14 44.047,0c1.547,-0.025 2.944,-1.353 2.959,-2.973l0,-5.116c-0.303,0.066 -0.617,0.103 -0.937,0.108c-6.682,0.062 -13.365,0.098 -20.048,0.109l0,1.886c-0.004,0.175 -0.021,0.228 -0.055,0.327c-0.136,0.392 -0.459,0.659 -0.944,0.671l-5.996,0c-0.175,-0.004 -0.228,-0.021 -0.327,-0.055c-0.394,-0.136 -0.661,-0.458 -0.672,-0.943l0,-1.886c-6.683,-0.011 -13.366,-0.047 -20.048,-0.109c-0.328,-0.005 -0.652,-0.046 -0.969,-0.118Zm23.015,-2.875l0,3.991l3.997,0l0,-3.991c-1.332,0 -2.664,0 -3.997,0Zm28.98,-30.926l-18.987,0l0,0l-15.989,0l0,0l-18.986,0c0,9.662 -0.15,19.326 0,28.987c0.033,1.522 1.362,2.922 2.979,2.937c6.668,0.02 13.336,0.067 20.005,0.096l0,-2.091c0.004,-0.175 0.02,-0.228 0.055,-0.327c0.136,-0.393 0.458,-0.66 0.944,-0.671l5.996,0c0.015,0 0.031,0.001 0.047,0.001c0.175,0.013 0.227,0.032 0.324,0.07c0.372,0.149 0.617,0.458 0.628,0.927l0,2.115c6.681,0.008 13.362,-0.017 20.042,-0.121c1.54,-0.033 2.936,-1.371 2.942,-2.994l0,-28.929Zm-19.986,-1.995c0,-1.007 0.019,-2.013 -0.001,-3.02c-0.016,-0.507 -0.461,-0.954 -0.972,-0.971c-4.004,-0.075 -8.01,0 -12.015,0c-0.53,0.003 -0.999,0.456 -1.002,1.001l0,2.99l13.99,0Z" class="color212121 svgShape"/></svg>