<svg width="24" height="24" viewBox="0 0 24 24" fill="none" xmlns="http://www.w3.org/2000/svg">
<path d="M10 22.9404C10.5522 22.9404 11 22.4932 11 21.9404V18C11 17.4473 10.5522 17 10 17C9.44775 17 9 17.4473 9 18V21.9404C9 22.4932 9.44775 22.9404 10 22.9404Z" fill="currentColor"/>
<path d="M18 17C18.5523 17 19 16.5523 19 16C19 15.4477 18.5523 15 18 15C17.4477 15 17 15.4477 17 16C17 16.5523 17.4477 17 18 17Z" fill="currentColor"/>
<path d="M20 20C20.5523 20 21 19.5523 21 19C21 18.4477 20.5523 18 20 18C19.4477 18 19 18.4477 19 19C19 19.5523 19.4477 20 20 20Z" fill="currentColor"/>
<path d="M17 21C17.5523 21 18 20.5523 18 20C18 19.4477 17.5523 19 17 19C16.4477 19 16 19.4477 16 20C16 20.5523 16.4477 21 17 21Z" fill="currentColor"/>
<path d="M12.3568 10.2291C12.2019 9.53455 11.8877 8.9104 11.4552 8.40155C12.3865 7.77197 13 6.70618 13 5.5C13 3.57031 11.4297 2 9.50002 2C7.57033 2 6.00002 3.57031 6.00002 5.5C6.00002 6.24603 6.23891 6.93494 6.63833 7.50354C5.58352 8.10016 4.80544 9.18152 4.59963 10.5107L4.01174 14.3105C3.98244 14.5 4.00832 14.6934 4.08547 14.8682L5.00002 16.9365V17.5859L5.00017 20.5C5.00017 20.5 5 20.5 4.99983 21C5 21.5 4.99983 21 5 21.5C4.99983 21 5.00002 22.1915 5.00002 21.9404C5.00002 22.4932 5.44778 22.9404 6.00002 22.9404C6.55227 22.9404 7.00002 22.4932 7.00002 21.9404V18.4141L9.75823 15.6559L12.5164 12.8976C12.5585 12.9068 12.5983 12.9216 12.6411 12.9287L14.835 13.2959C15.3799 13.3936 15.895 13.0195 15.9863 12.4746C16.0777 11.9297 15.71 11.4141 15.1651 11.3232L14.2448 11.1693C13 11 14.2448 11.1693 13 11C12.5 11 12.5 11 12.3568 10.2291ZM9.50002 4C10.3272 4 11 4.67285 11 5.5C11 6.32715 10.3272 7 9.50002 7C8.67287 7 8.00002 6.32715 8.00002 5.5C8.00002 4.67285 8.67287 4 9.50002 4ZM6.03323 14.3271L6.57619 10.8174C6.73879 9.76367 7.5508 9 8.50686 9C9.41311 9 10.2173 9.71582 10.4185 10.7031C10.4965 11.0855 12 12.5 12.5164 12.8976L9.75823 15.6559L7.00002 18.4141L6.71535 15.8706L6.03323 14.3271Z" fill="currentColor"/>
</svg>
