<svg xmlns="http://www.w3.org/2000/svg" data-name="Icon Line" viewBox="0 0 64 64" class="d-none"><path fill="currentColor" d="M16.87,57H7.2a1.89,1.89,0,0,1-1.27-3.3l2.68-2.43c-.77-8.5.29-13.21,3.22-14.39,4.73-1.9,11.83,6.87,12.62,7.87A1,1,0,1,1,22.88,46c-2.64-3.34-7.77-8.28-10.3-7.26-1.14.46-2.91,2.74-1.93,12.85a1,1,0,0,1-.33.83L7.48,55h8.58c.46-2.39.63-5.62-.29-6.6a1,1,0,0,1,1.46-1.37c2.12,2.26.89,8.06.62,9.19A1,1,0,0,1,16.87,57Z" class="color231f20 svgShape"/><path fill="currentColor" d="M3.65,40.46a1,1,0,0,1-1-.82c-.5-2.76,0-4.91,1.53-6.4,2.06-2,5.48-2.21,7.74-2.08-1.65-3.62-1-9.23-.91-10a1,1,0,0,1,2,.25c-.28,2.19-.53,8.3,1.67,10.24a1,1,0,0,1,.24,1.19,1,1,0,0,1-1.1.54c-.05,0-5.77-1.14-8.23,1.27a4.41,4.41,0,0,0-1.09,3.67A3.18,3.18,0,0,0,7,35.91a1,1,0,0,1,1-.79c.24,0,5.94.07,9.65,3.13a1,1,0,1,1-1.27,1.54c-2.45-2-6.11-2.51-7.65-2.63A5.5,5.5,0,0,1,3.65,40.46Z" class="color231f20 svgShape"/><path fill="currentColor" d="M17.72,40.53a1,1,0,0,1-.53-1.85c7.36-4.63,2.15-13.15,1.92-13.51a1,1,0,0,1,1.7-1.07A17.2,17.2,0,0,1,23,30a9.75,9.75,0,0,1-4.69,10.4A1,1,0,0,1,17.72,40.53Z" class="color231f20 svgShape"/><path fill="currentColor" d="M41.6,58A38.51,38.51,0,0,1,27.93,55.2a8.52,8.52,0,0,1-6.25,2.34,8,8,0,0,1-5.25-2.9A1,1,0,0,1,18,53.43a6,6,0,0,0,3.86,2.11c1.67.14,3.42-.61,5.19-2.24a1,1,0,0,1,1.09-.18c.18.09,18.08,8,27.11-2.93,3.61-4.35,4.93-8.86,3.84-13a12.14,12.14,0,0,0-6.4-7.87,12.94,12.94,0,0,0-9.43.2,6.34,6.34,0,0,0-3.47,3.87c-1.4,4.28.57,9.14,3.22,10.81a2.64,2.64,0,0,0,3.55-.24c1.25-1.18,1.26-1.67,1.26-1.68-.31-.33-2.36-.36-3.3,0a1.52,1.52,0,0,1-1.74-.59,8.54,8.54,0,0,1-.22-8.55c1-1.62,3.31-3.28,8.21-2a8.37,8.37,0,0,1,6.11,5.73A12.23,12.23,0,0,1,54.32,48a19.2,19.2,0,0,1-24.23,3.3,1,1,0,0,1-.46-1.15c.05-.17,4.94-16.94-3.05-27.4-2.74-3.59-4.34-5.71-5.25-6.93-1-1.39-1.47-2-1.34-2.44l-1.32-3.22a1.76,1.76,0,0,0-1.13-1L14,8.11a1.75,1.75,0,0,0-1.27.1L9.37,9.83a1.8,1.8,0,0,0-1,1.6v2.09a1.13,1.13,0,0,1,0,.32L7,17.64a1.56,1.56,0,0,0,.4,1.64L8.8,20.6a1.75,1.75,0,0,0,2.12.22l5.55-3.46a1,1,0,0,1,1.05,1.7L12,22.52a3.74,3.74,0,0,1-4.54-.46L6,20.73A3.57,3.57,0,0,1,5.1,17l1.26-3.64V11.43A3.79,3.79,0,0,1,8.5,8l3.39-1.62a3.74,3.74,0,0,1,2.71-.22l3.51,1a3.74,3.74,0,0,1,2.41,2.18l1.73,4.21a.83.83,0,0,1,0,.15c.62.85,2.14,2.89,5.88,7.78,7.68,10.05,4.52,24.82,3.59,28.4a17.15,17.15,0,0,0,21.05-3.25A10.16,10.16,0,0,0,55,37.43a6.34,6.34,0,0,0-4.71-4.38c-3.16-.83-5.24-.36-6.17,1.4a7.06,7.06,0,0,0,.13,5.8c1.43-.37,4.35-.55,5.31,1,.69,1.1.15,2.5-1.6,4.15a4.66,4.66,0,0,1-6,.47C38.62,43.74,36.2,38,37.91,32.73a8.4,8.4,0,0,1,4.51-5.06,15.12,15.12,0,0,1,11-.26A14.06,14.06,0,0,1,61,36.65c.88,3.36.87,8.67-4.23,14.82C52.61,56.52,46.89,58,41.6,58Z" class="color231f20 svgShape"/><path fill="currentColor" d="M8.84 14.52H7.36a1 1 0 110-2H8.84a1 1 0 010 2zM17.72 14.52a1 1 0 01-.47-.12A1 1 0 0116.84 13c.37-.68.29-.91.28-.91a1.33 1.33 0 00-.82-.21 1 1 0 01-.09-2 3.07 3.07 0 012.61 1.15A2.8 2.8 0 0118.6 14 1 1 0 0117.72 14.52z" class="color231f20 svgShape"/></svg>