<svg xmlns="http://www.w3.org/2000/svg" viewBox="0 0 512 512" class="d-none"><path d="M112.6 211.6H61a30.2 30.2 0 0 1-7.2-59.5 30.2 30.2 0 0 1 58.4-.8h.4a30.2 30.2 0 1 1 0 60.3ZM83.1 145.1A14.2 14.2 0 0 0 69 159.3a8 8 0 0 1-8 8 14.2 14.2 0 1 0 0 28.3h51.6a14.2 14.2 0 1 0 0-28.3 12.6 12.6 0 0 0-4.7.8 8.1 8.1 0 0 1-7.5-1.1 8.3 8.3 0 0 1-3.2-6.9c0-.3.1-.5.1-.8A14.3 14.3 0 0 0 83.1 145.1ZM177.3 109.5H125.6a30.1 30.1 0 0 1-7.1-59.4 30.1 30.1 0 0 1 58.3-.8h.5a30.1 30.1 0 0 1 0 60.2ZM147.8 43.1a14.3 14.3 0 0 0-14.2 14.2 8 8 0 0 1-8 8 14.1 14.1 0 1 0 0 28.2h51.7a14.1 14.1 0 0 0 0-28.2 12.6 12.6 0 0 0-4.7.8 8 8 0 0 1-7.5-1.2 7.6 7.6 0 0 1-3.2-6.8v-.8A14.2 14.2 0 0 0 147.8 43.1ZM451 109.5H399.4a30.1 30.1 0 0 1-7.2-59.4 30.2 30.2 0 0 1 58.4-.8h.4a30.1 30.1 0 1 1 0 60.2ZM421.5 43.1a14.2 14.2 0 0 0-14.1 14.2 8 8 0 0 1-8 8 14.1 14.1 0 1 0 0 28.2H451a14.1 14.1 0 1 0 0-28.2 12.6 12.6 0 0 0-4.7.8 8 8 0 0 1-7.5-1.2 8.2 8.2 0 0 1-3.2-6.8v-.8A14.2 14.2 0 0 0 421.5 43.1ZM371.9 189.1H183.3a7.9 7.9 0 0 1-6.9-4 8.1 8.1 0 0 1 0-8l23.5-40.6a8 8 0 0 1 13.9 8l-16.6 28.6H371.9a8 8 0 0 1 0 16Z" fill="#34a853" class="color000 svgShape"/><path d="M371.9,189.1a8,8,0,0,1-7.2-4.4l-30.5-61.2a50.1,50.1,0,0,0-31.3,29.3c-14.5,35.9-51.4,36.3-52.9,36.3a8,8,0,0,1,0-16c1.1,0,27.6-.5,38.1-26.3,14.2-35.2,47.9-40.3,49.3-40.5a8.1,8.1,0,0,1,8.3,4.3l33.3,67a7.9,7.9,0,0,1-3.6,10.7A7.2,7.2,0,0,1,371.9,189.1Z" fill="#34a853" class="color000 svgShape"/><path d="M347.8,140.7a8.1,8.1,0,0,1-7.4-4.8,8,8,0,0,1,4.2-10.5,5.8,5.8,0,0,0,2.7-3.2,6.8,6.8,0,0,0-.4-5.3L305.4,36.6a4.1,4.1,0,0,0-3.8-2.6h0a4.2,4.2,0,0,0-3.8,2.6L280.5,70.1a8,8,0,0,1-14.2-7.3l17.3-33.5a20.3,20.3,0,0,1,18-11.3h0a20.6,20.6,0,0,1,18.1,11.3l41.4,80.3a22.6,22.6,0,0,1,1.2,18,21.1,21.1,0,0,1-11.4,12.5A8.5,8.5,0,0,1,347.8,140.7Z" fill="#34a853" class="color000 svgShape"/><path d="M255.2,189.1a8,8,0,0,1-7.9-6.9c-.8-5.3-2.8-8.9-6.2-11.2-6.7-4.6-18-3.2-21.4-2.3l-1.9.2a20.3,20.3,0,0,1-17.3-9.9,23,23,0,0,1-.7-22.2l41.4-80.3a20.6,20.6,0,0,1,18.1-11.3h0a20.5,20.5,0,0,1,18,11.3l3.2,6.3a7.9,7.9,0,0,1,0,7.3l-24.2,46.8a7,7,0,0,0,.2,6.5,4.5,4.5,0,0,0,3.6,2.3h45.1a8,8,0,1,1,0,16H260.1a20.2,20.2,0,0,1-17.2-10,22.6,22.6,0,0,1-.8-22.1l22.3-43.2-1.3-2.5c-1.2-2.3-2.9-2.7-3.8-2.7h0a4.2,4.2,0,0,0-3.8,2.7L214,144.2a6.5,6.5,0,0,0,.2,6.4,4,4,0,0,0,3,2.2c4.8-1,20.7-3.4,32.9,4.9,7.2,4.8,11.7,12.6,13,22.3a7.9,7.9,0,0,1-6.8,9Z" fill="#34a853" class="color000 svgShape"/><path d="M302.1 70.6c-8.6 0-13.3-3.3-16.8-5.7s-3.6-2.5-6.3-2.7a8 8 0 0 1 1.4-16 27.5 27.5 0 0 1 14 5.6c2.7 1.8 4.1 2.8 7.7 2.8s5-1 7.7-2.8a26.5 26.5 0 0 1 12.7-5.4 8 8 0 1 1 2.1 15.8c-2.2.3-3.5 1.2-5.7 2.7S310.7 70.6 302.1 70.6ZM114.6 494a8 8 0 0 1-8-8c0-30.5 30.8-45.1 58-58 25.1-12 48.8-23.3 48.8-43.6s-23.7-31.7-48.8-43.6c-27.2-12.9-58-27.6-58-58.1s30.8-45.1 58-58c25.1-11.9 48.8-23.2 48.8-43.6a8 8 0 0 1 16 0c0 30.5-30.8 45.1-57.9 58.1-25.1 11.9-48.9 23.2-48.9 43.5s23.8 31.7 48.9 43.6c27.1 13 57.9 27.6 57.9 58.1s-30.8 45.1-57.9 58c-25.1 12-48.9 23.2-48.9 43.6A8 8 0 0 1 114.6 494Z" fill="#34a853" class="color000 svgShape"/><path d="M234.1,494a8,8,0,0,1-8-8c0-30.5,30.8-45.1,58-58,25.1-12,48.8-23.3,48.8-43.6s-23.7-31.7-48.8-43.6c-27.2-12.9-58-27.6-58-58.1s30.8-45.1,58-58c25.1-11.9,48.8-23.2,48.8-43.6a8,8,0,0,1,16,0c0,30.5-30.8,45.1-58,58.1-25.1,11.9-48.8,23.2-48.8,43.5s23.7,31.7,48.8,43.6c27.2,13,58,27.6,58,58.1s-30.8,45.1-58,58c-25.1,12-48.8,23.2-48.8,43.6A8,8,0,0,1,234.1,494Z" fill="#34a853" class="color000 svgShape"/></svg>