<svg xmlns="http://www.w3.org/2000/svg" viewBox="0 0 32 32" class="d-none"><g data-name="Layer 2" fill="#34a853" class="color000 svgShape"><polygon points="7.55 26 14.45 26 11 17.63 7.55 26" fill="#34a853" class="color000 svgShape"/><path d="M29.91 24.59l-8-18A1 1 0 0 0 21 6H12.71a1.92 1.92 0 0 1 .12.18l8 18A2 2 0 0 1 20.72 26H29a1 1 0 0 0 .91-1.41zM19.65 24L12.54 8l-.63-1.41A1 1 0 0 0 11 6l-.21 0-.18.06a1 1 0 0 0-.27.17.38.38 0 0 0-.09.09 1.07 1.07 0 0 0-.16.25v0l-8 18A1 1 0 0 0 3 26H5.39l4.69-11.38a1.16 1.16 0 0 1 .21-.33 1.21 1.21 0 0 1 .3-.2h0a.58.58 0 0 1 .14 0A.93.93 0 0 1 11 14a1.06 1.06 0 0 1 .3.06s0 0 .08 0a.9.9 0 0 1 .54.54L15.79 24l.82 2H19a1 1 0 0 0 .91-1.41z" fill="#34a853" class="color000 svgShape"/></g></svg>