<svg xmlns="http://www.w3.org/2000/svg" viewBox="0 0 64 64" class="d-none"><path d="M32,39.35a1,1,0,1,0,1,1A1,1,0,0,0,32,39.35Z" fill="#34a853" class="color000 svgShape"/><path d="M55,26.18a3,3,0,0,0-3,3v2.19H45v-.14a3,3,0,0,0-3-3H40.45a4,4,0,0,0-3.47-2H26a3,3,0,0,0-2.83,2H22a3,3,0,0,0-3,3v.14H12V29.18a3,3,0,0,0-6,0v6.14a3,3,0,0,0,6,0v-2h7v2.94a1,1,0,0,0,1,1h3v.31l-5.32,1.8a1,1,0,0,0-.61.58l-3.75,9.5H11a1,1,0,0,0,0,2h6a1,1,0,0,0,0-2H15.47l3.29-8.34L23,39.73v1.65a1,1,0,0,0,1,1h3.42a5,5,0,0,0,9.16,0H40a1,1,0,0,0,1-1V39.73l4.24,1.43,3.29,8.34H47a1,1,0,0,0,0,2h6a1,1,0,0,0,0-2H50.68L46.93,40a1,1,0,0,0-.61-.58L41,37.62v-.31h3a1,1,0,0,0,1-1V33.37h7v2a3,3,0,0,0,6,0V29.18A3,3,0,0,0,55,26.18ZM10,35.32a1,1,0,0,1-2,0V29.18a1,1,0,0,1,2,0Zm29,1v1H36a4.92,4.92,0,0,0-8,0H25V33.25H39ZM25,29.2a1,1,0,0,1,1-1H37a2,2,0,0,1,2,2v1H25v-2Zm-4,6.11V31.23a1,1,0,0,1,1-1h1v5.1Zm4,5.07v-1h2.1a5.69,5.69,0,0,0-.1,1v0Zm7,3a3.06,3.06,0,1,1,3-3.06A3,3,0,0,1,32,43.42Zm7-3H37v0a5.69,5.69,0,0,0-.1-1H39Zm4-5.07H41v-5.1h1a1,1,0,0,1,1,1Zm13,0a1,1,0,0,1-2,0V29.18a1,1,0,0,1,2,0Z" fill="#34a853" class="color000 svgShape"/><path d="M14 25.16a1 1 0 0 0-1-1H5a1 1 0 0 0 0 2h8A1 1 0 0 0 14 25.16zM59 24.16H51a1 1 0 0 0 0 2h8a1 1 0 0 0 0-2zM25.19 17.12A9.67 9.67 0 0 1 32 14.5a10 10 0 0 1 6.85 2.76 1 1 0 0 0 1.41 0 1 1 0 0 0 0-1.41A12 12 0 0 0 32 12.5a11.57 11.57 0 0 0-8.17 3.18 1 1 0 0 0 1.38 1.44z" fill="#34a853" class="color000 svgShape"/><path d="M36.53 20.38a1 1 0 0 0 .69-1.72A7.57 7.57 0 0 0 32 16.55H32a7.27 7.27 0 0 0-5.11 2 1 1 0 0 0 0 1.41 1 1 0 0 0 1.42 0A5.26 5.26 0 0 1 32 18.55H32a5.61 5.61 0 0 1 3.83 1.55A1 1 0 0 0 36.53 20.38zM30.06 22.62a2 2 0 1 0 2-2A2 2 0 0 0 30.06 22.62z" fill="#34a853" class="color000 svgShape"/></svg>