<svg xmlns="http://www.w3.org/2000/svg" viewBox="0 0 46 46" class="d-none"><path d="M40.169,14.765a2,2,0,0,0-1.8-.275l-4,1.333A1.986,1.986,0,0,0,33.149,17H30.816A3,3,0,0,0,28,15H15V13H27a3,3,0,0,0,0-6H16a3,3,0,0,0-3,3v5H12a3,3,0,0,0-2.816,2H7a1,1,0,0,0-2,0v8a1,1,0,0,0,2,0H9v3a3,3,0,0,0,3,3h2v2a2,2,0,0,0,2,2v2a2,2,0,0,0,2,2h4a2,2,0,0,0,2-2V35a2,2,0,0,0,2-2V31h2a3,3,0,0,0,2.816-2h2.333a1.986,1.986,0,0,0,1.218,1.176l4,1.334a1.985,1.985,0,0,0,.631.1,2,2,0,0,0,2-2V16.388A2.005,2.005,0,0,0,40.169,14.765ZM15,10a1,1,0,0,1,1-1H27a1,1,0,0,1,0,2H15Zm6,7h3v6H21ZM7,23V19H9v4ZM22,37l-4,0V35h4Zm2-4H16V31h8Zm4-4H12a1,1,0,0,1-1-1V18a1,1,0,0,1,1-1h7v6a2,2,0,0,0,2,2h3a2,2,0,0,0,2-2V17h2a1,1,0,0,1,1,1V28A1,1,0,0,1,28,29Zm3-10h2v8H31Zm8,10.613-4-1.334V17.721l4-1.333,0,13.225Z" fill="#34a853" class="color000 svgShape"/><path d="M16 19H15a1 1 0 0 0 0 2h1a1 1 0 0 0 0-2ZM16 23H15a1 1 0 0 0 0 2h1a1 1 0 0 0 0-2Z" fill="#34a853" class="color000 svgShape"/></svg>