<svg xmlns="http://www.w3.org/2000/svg" viewBox="0 0 48 48" class="d-none"><g data-name="Layer 3" fill="#34a853" class="color000 svgShape"><path d="M22 22a1 1 0 0 0 1-1v-5h5a5 5 0 0 0 0-10h-6a1 1 0 0 0-1 1v14a1 1 0 0 0 1 1Zm9-11a3 3 0 0 1-3 3h-5V8h5a3 3 0 0 1 3 3Z" fill="#34a853" class="color000 svgShape"/><path d="M38 2H16a1 1 0 0 0-1 1v3h-1V3a1 1 0 0 0-1-1h-3a1 1 0 0 0-1 1v42a1 1 0 0 0 1 1h3a1 1 0 0 0 1-1V22h1v3a1 1 0 0 0 1 1h22a1 1 0 0 0 1-1V3a1 1 0 0 0-1-1ZM12 44h-1V4h1Zm2-24V8h1v12Zm23 4H17V4h20Z" fill="#34a853" class="color000 svgShape"/></g></svg>