<svg xmlns="http://www.w3.org/2000/svg" fill-rule="evenodd" clip-rule="evenodd" image-rendering="optimizeQuality" shape-rendering="geometricPrecision" text-rendering="geometricPrecision" viewBox="0 0 6.827 6.827" class="d-none"><path d="M5.176 3.414V5.41H3.71v-.765a.634.634 0 00-.636-.636.634.634 0 00-.636.636v.765H.97V3.414h4.206zM5.777 1.524V5.41h-.518V1.524zM5.184 1.394a.977.977 0 01.111-.368c.046-.08.122-.171.223-.171.1 0 .177.09.223.171.063.11.096.243.11.368l.006.046h-.678l.005-.046zM1.496 3.282a1.3 1.3 0 01.497-.778 1.766 1.766 0 011.08-.355c.386 0 .774.117 1.08.355a1.3 1.3 0 01.497.778l.01.049H1.487l.009-.049zM1.514 5.724h3.62a.124.124 0 010 .248h-3.62a.124.124 0 010-.248zM3.197 1.866v.204l-.043-.002a2.002 2.002 0 00-.162 0l-.043.002v-.206a.473.473 0 01-.287-.195.388.388 0 01-.049-.335.124.124 0 01.236.075l-.003.011c-.009.04 0 .079.022.112a.227.227 0 00.145.093.293.293 0 00.192-.021.195.195 0 00.104-.112.124.124 0 01.236.075.44.44 0 01-.231.259.523.523 0 01-.117.04z" fill="#34a853" class="color000 svgShape"/><path fill="none" d="M0 0h6.827v6.827H0z"/></svg>