<svg xmlns="http://www.w3.org/2000/svg" fill-rule="evenodd" stroke-linejoin="round" stroke-miterlimit="2" clip-rule="evenodd" viewBox="0 0 48 48" class="d-none"><path d="M524.428,76.381C514.598,78.119 507.389,86.983 507.962,97.195C508.581,108.216 518.031,116.661 529.052,116.043C534.403,115.742 539.147,113.359 542.541,109.726C542.918,109.322 543.552,109.301 543.955,109.677C544.358,110.054 544.38,110.687 544.003,111.091C540.27,115.088 535.051,117.709 529.164,118.039C517.041,118.72 506.646,109.43 505.965,97.307C505.36,86.532 512.633,77.121 522.771,74.685C521.585,74.261 520.48,73.917 520.48,73.917C519.953,73.753 519.66,73.191 519.824,72.664C519.989,72.138 520.551,71.844 521.078,72.009C521.078,72.009 524.65,73.134 526.053,73.88C526.394,74.061 526.671,74.334 526.856,74.662C526.864,74.676 526.872,74.689 526.879,74.703C526.98,74.893 527.051,75.099 527.088,75.316C527.19,75.93 527.001,76.557 526.576,77.011L523.845,79.934C523.469,80.337 522.835,80.359 522.432,79.982C522.029,79.605 522.007,78.972 522.384,78.569L524.428,76.381ZM531.58,76.32C531.037,76.222 530.676,75.701 530.774,75.158C530.872,74.615 531.393,74.254 531.936,74.352C532.916,74.529 533.872,74.771 534.802,75.074C535.327,75.244 535.615,75.809 535.444,76.334C535.273,76.859 534.708,77.146 534.184,76.976C533.339,76.701 532.47,76.481 531.58,76.32ZM537.92,78.63C537.44,78.357 537.273,77.745 537.546,77.266C537.819,76.786 538.43,76.619 538.91,76.892C539.775,77.385 540.596,77.931 541.373,78.526C541.811,78.861 541.894,79.489 541.559,79.928C541.223,80.366 540.595,80.449 540.157,80.114C539.452,79.574 538.705,79.077 537.92,78.63ZM543.13,82.916C542.769,82.499 542.814,81.867 543.232,81.505C543.649,81.144 544.281,81.189 544.642,81.607C545.294,82.359 545.887,83.147 546.422,83.966C546.724,84.428 546.593,85.048 546.131,85.35C545.669,85.652 545.049,85.522 544.747,85.059C544.262,84.316 543.722,83.599 543.13,82.916ZM546.62,88.691C546.418,88.177 546.671,87.596 547.184,87.394C547.698,87.192 548.279,87.445 548.481,87.958C548.845,88.885 549.143,89.826 549.375,90.775C549.506,91.312 549.177,91.853 548.641,91.984C548.104,92.115 547.563,91.786 547.432,91.25C547.221,90.387 546.951,89.532 546.62,88.691ZM547.991,95.297C547.971,94.746 548.402,94.282 548.954,94.262C549.506,94.242 549.969,94.674 549.989,95.225C550.025,96.22 549.993,97.206 549.896,98.179C549.841,98.728 549.351,99.13 548.802,99.075C548.252,99.02 547.851,98.53 547.906,97.981C547.994,97.097 548.023,96.201 547.991,95.297ZM547.087,101.984C547.252,101.457 547.813,101.163 548.34,101.328C548.867,101.492 549.161,102.054 548.996,102.58C548.699,103.53 548.341,104.45 547.926,105.335C547.691,105.835 547.096,106.05 546.596,105.816C546.096,105.582 545.881,104.986 546.115,104.486C546.492,103.682 546.817,102.847 547.087,101.984ZM516.971,85.833C522.623,79.784 532.122,79.462 538.172,85.114C544.221,90.766 544.543,100.266 538.891,106.315C533.239,112.364 523.739,112.686 517.69,107.034C511.641,101.382 511.319,91.882 516.971,85.833ZM518.432,87.199C513.534,92.441 513.813,100.675 519.056,105.573C524.298,110.471 532.531,110.192 537.43,104.949C542.328,99.707 542.049,91.474 536.806,86.575C531.563,81.677 523.33,81.956 518.432,87.199ZM527.248,96.805L519.941,89.978C519.538,89.601 519.516,88.967 519.893,88.564C520.27,88.161 520.903,88.139 521.307,88.516L528.311,95.061L537.891,94.735C538.443,94.717 538.906,95.149 538.924,95.701C538.943,96.252 538.511,96.716 537.959,96.734L527.965,97.073C527.699,97.082 527.443,96.986 527.248,96.805Z" transform="rotate(46.944 358.95 -520.222)" fill="#34a853" class="color000 svgShape"/></svg>